# xmcd CD database file
#
# Track frame offsets:
#	150
#	25635
#	47245
#	64576
#	82981
#	104986
#	125920
#	144165
#	174383
#
# Disc length: 2629 seconds
#
# Revision: 1
# Processed by: cddbd v1.5.2PL0 Copyright (c) Steve Scherf et al.
# Submitted via: CDex 1.51
#
DISCID=780a4309
DTITLE=Julianna Barwick - The Magic Place
DYEAR=2011
DGENRE=New Age
TTITLE0=Envelop
TTITLE1=Keep Up the Good Work
TTITLE2=The Magic Place
TTITLE3=Cloak
TTITLE4=White Flag
TTITLE5=Vow
TTITLE6=Bob In Your Gait
TTITLE7=Prizewinning
TTITLE8=Flown
EXTD=YEAR: 2011
EXTT0=
EXTT1=
EXTT2=
EXTT3=
EXTT4=
EXTT5=
EXTT6=
EXTT7=
EXTT8=
PLAYORDER=
